<svg width="48" height="48" viewBox="0 0 48 48" fill="none" xmlns="http://www.w3.org/2000/svg">
<rect width="48" height="48" rx="24" fill="#3B82F6" fill-opacity="0.1"/>
<path d="M24 27V29M18 33H30C30.5304 33 31.0391 32.7893 31.4142 32.4142C31.7893 32.0391 32 31.5304 32 31V25C32 24.4696 31.7893 23.9609 31.4142 23.5858C31.0391 23.2107 30.5304 23 30 23H18C17.4696 23 16.9609 23.2107 16.5858 23.5858C16.2107 23.9609 16 24.4696 16 25V31C16 31.5304 16.2107 32.0391 16.5858 32.4142C16.9609 32.7893 17.4696 33 18 33ZM28 23V19C28 17.9391 27.5786 16.9217 26.8284 16.1716C26.0783 15.4214 25.0609 15 24 15C22.9391 15 21.9217 15.4214 21.1716 16.1716C20.4214 16.9217 20 17.9391 20 19V23H28Z" stroke="#3B82F6" stroke-width="2" stroke-linecap="round" stroke-linejoin="round"/>
</svg>
